<?xml version="1.0" encoding="iso-8859-1"?>
<!-- Generator: Adobe Illustrator 16.0.0, SVG Export Plug-In . SVG Version: 6.00 Build 0)  -->
<!DOCTYPE svg PUBLIC "-//W3C//DTD SVG 1.1//EN" "http://www.w3.org/Graphics/SVG/1.1/DTD/svg11.dtd">
<svg version="1.1" id="Capa_1" xmlns="http://www.w3.org/2000/svg" xmlns:xlink="http://www.w3.org/1999/xlink" x="0px" y="0px"
	 width="933.002px" height="933.002px" viewBox="0 0 933.002 933.002" style="enable-background:new f f 933.002 933.002; fill: white;"
	 xml:space="preserve">
<g>
	<path d="M840.501,0H232.308c-11.046,0-20,8.954-20,20v282.691L79.164,503.478c-4.345,6.555-6.663,14.243-6.663,22.106v56.493
		c0,11.046,8.954,20,20,20h48.053v118.617H92.501c-11.046,0-20,8.953-20,20v172.308c0,11.046,8.954,20,20,20h748
		c11.046,0,20-8.954,20-20V20C860.501,8.954,851.547,0,840.501,0z M374.592,236.741c0,11.045-8.954,20-20,20h-48.968
		c-11.045,0-20-8.955-20-20V92.451c0-11.045,8.955-20,20-20h48.968c11.046,0,20,8.955,20,20V236.741z M512.28,236.741
		c0,11.045-8.954,20-20,20h-48.968c-11.046,0-20-8.955-20-20V92.451c0-11.045,8.954-20,20-20h48.968c11.046,0,20,8.955,20,20
		V236.741z M649.969,236.741c0,11.045-8.954,20-20,20h-48.968c-11.046,0-20-8.955-20-20V92.451c0-11.045,8.954-20,20-20h48.968
		c11.046,0,20,8.955,20,20V236.741z M787.657,236.741c0,11.045-8.954,20-20,20h-48.969c-11.045,0-20-8.955-20-20V92.451
		c0-11.045,8.955-20,20-20h48.969c11.046,0,20,8.955,20,20V236.741z"/>
</g>
<g>
</g>
<g>
</g>
<g>
</g>
<g>
</g>
<g>
</g>
<g>
</g>
<g>
</g>
<g>
</g>
<g>
</g>
<g>
</g>
<g>
</g>
<g>
</g>
<g>
</g>
<g>
</g>
<g>
</g>
</svg>
